<mxfile host="app.diagrams.net" modified="2022-04-29T03:37:10.962Z" agent="5.0 (Windows NT 6.1; Win64; x64) AppleWebKit/537.36 (KHTML, like Gecko) Chrome/100.0.4896.127 Safari/537.36" etag="8iYkg2LsTZrHnTyjrRKl" version="17.4.6" type="github">
  <diagram name="Page-1" id="0783ab3e-0a74-02c8-0abd-f7b4e66b4bec">
    <mxGraphModel dx="1102" dy="614" grid="1" gridSize="10" guides="1" tooltips="1" connect="1" arrows="1" fold="1" page="1" pageScale="1" pageWidth="850" pageHeight="1100" background="none" math="0" shadow="0">
      <root>
        <mxCell id="0" />
        <mxCell id="1" style="" parent="0" />
        <mxCell id="yMNoHmbHOcBadjuwgdB2-3" style="rounded=0;orthogonalLoop=1;jettySize=auto;html=1;fontFamily=Verdana;entryX=0;entryY=0.5;entryDx=0;entryDy=0;" edge="1" parent="1" source="60571a20871a0731-4">
          <mxGeometry relative="1" as="geometry">
            <mxPoint x="182.5" y="100" as="targetPoint" />
          </mxGeometry>
        </mxCell>
        <mxCell id="60571a20871a0731-4" value="" style="ellipse;whiteSpace=wrap;html=1;rounded=0;shadow=0;comic=0;labelBackgroundColor=none;strokeWidth=1;fillColor=#000000;fontFamily=Verdana;fontSize=12;align=center;" parent="1" vertex="1">
          <mxGeometry x="80" y="80" width="40" height="40" as="geometry" />
        </mxCell>
        <mxCell id="60571a20871a0731-5" value="" style="shape=mxgraph.bpmn.shape;html=1;verticalLabelPosition=bottom;labelBackgroundColor=#ffffff;verticalAlign=top;perimeter=ellipsePerimeter;outline=end;symbol=terminate;rounded=0;shadow=0;comic=0;strokeWidth=1;fontFamily=Verdana;fontSize=12;align=center;" parent="1" vertex="1">
          <mxGeometry x="80" y="860" width="40" height="40" as="geometry" />
        </mxCell>
        <mxCell id="yMNoHmbHOcBadjuwgdB2-12" value="Программа" style="swimlane;html=1;startSize=20;fontFamily=Verdana;" vertex="1" parent="1">
          <mxGeometry x="150" y="40" width="170" height="880" as="geometry" />
        </mxCell>
        <mxCell id="yMNoHmbHOcBadjuwgdB2-33" style="edgeStyle=none;rounded=0;orthogonalLoop=1;jettySize=auto;html=1;fontFamily=Verdana;entryX=0.5;entryY=0;entryDx=0;entryDy=0;" edge="1" parent="yMNoHmbHOcBadjuwgdB2-12" target="yMNoHmbHOcBadjuwgdB2-32">
          <mxGeometry relative="1" as="geometry">
            <mxPoint x="75" y="75" as="sourcePoint" />
          </mxGeometry>
        </mxCell>
        <mxCell id="yMNoHmbHOcBadjuwgdB2-36" style="edgeStyle=none;rounded=0;orthogonalLoop=1;jettySize=auto;html=1;exitX=0.5;exitY=1;exitDx=0;exitDy=0;entryX=0.5;entryY=0;entryDx=0;entryDy=0;fontFamily=Verdana;" edge="1" parent="yMNoHmbHOcBadjuwgdB2-12" target="yMNoHmbHOcBadjuwgdB2-35">
          <mxGeometry relative="1" as="geometry">
            <mxPoint x="75" y="180" as="sourcePoint" />
          </mxGeometry>
        </mxCell>
        <mxCell id="yMNoHmbHOcBadjuwgdB2-37" value="Да" style="edgeLabel;html=1;align=center;verticalAlign=middle;resizable=0;points=[];fontFamily=Verdana;" vertex="1" connectable="0" parent="yMNoHmbHOcBadjuwgdB2-36">
          <mxGeometry x="-0.2743" y="-1" relative="1" as="geometry">
            <mxPoint x="16" y="-13" as="offset" />
          </mxGeometry>
        </mxCell>
        <mxCell id="yMNoHmbHOcBadjuwgdB2-14" value="Пользователь" style="swimlane;html=1;startSize=20;fontFamily=Verdana;" vertex="1" parent="1">
          <mxGeometry x="320" y="40" width="440" height="880" as="geometry" />
        </mxCell>
        <mxCell id="yMNoHmbHOcBadjuwgdB2-38" value="Слой без названия" parent="0" />
        <mxCell id="yMNoHmbHOcBadjuwgdB2-55" style="edgeStyle=none;rounded=0;orthogonalLoop=1;jettySize=auto;html=1;entryX=0.494;entryY=0.226;entryDx=0;entryDy=0;entryPerimeter=0;fontFamily=Verdana;" edge="1" parent="yMNoHmbHOcBadjuwgdB2-38" source="yMNoHmbHOcBadjuwgdB2-39" target="yMNoHmbHOcBadjuwgdB2-54">
          <mxGeometry relative="1" as="geometry" />
        </mxCell>
        <mxCell id="yMNoHmbHOcBadjuwgdB2-39" value="Загрузка программы" style="rounded=1;whiteSpace=wrap;html=1;arcSize=18;fontFamily=Verdana;" vertex="1" parent="yMNoHmbHOcBadjuwgdB2-38">
          <mxGeometry x="182.5" y="85" width="85" height="30" as="geometry" />
        </mxCell>
        <mxCell id="yMNoHmbHOcBadjuwgdB2-52" style="edgeStyle=none;rounded=0;orthogonalLoop=1;jettySize=auto;html=1;entryX=0.5;entryY=0;entryDx=0;entryDy=0;fontFamily=Verdana;" edge="1" parent="yMNoHmbHOcBadjuwgdB2-38" source="yMNoHmbHOcBadjuwgdB2-40" target="yMNoHmbHOcBadjuwgdB2-41">
          <mxGeometry relative="1" as="geometry" />
        </mxCell>
        <mxCell id="yMNoHmbHOcBadjuwgdB2-53" value="Да" style="edgeLabel;html=1;align=center;verticalAlign=middle;resizable=0;points=[];fontFamily=Verdana;" vertex="1" connectable="0" parent="yMNoHmbHOcBadjuwgdB2-52">
          <mxGeometry x="-0.4267" relative="1" as="geometry">
            <mxPoint x="15" y="-9" as="offset" />
          </mxGeometry>
        </mxCell>
        <mxCell id="yMNoHmbHOcBadjuwgdB2-40" value="Конец месяца?" style="rhombus;whiteSpace=wrap;html=1;fontFamily=Verdana;strokeWidth=1;" vertex="1" parent="yMNoHmbHOcBadjuwgdB2-38">
          <mxGeometry x="185" y="250" width="80" height="80" as="geometry" />
        </mxCell>
        <mxCell id="yMNoHmbHOcBadjuwgdB2-41" value="Автоматическая Печать отчёта за месяц" style="rounded=1;whiteSpace=wrap;html=1;arcSize=18;fontFamily=Verdana;" vertex="1" parent="yMNoHmbHOcBadjuwgdB2-38">
          <mxGeometry x="158.75" y="380" width="132.5" height="60" as="geometry" />
        </mxCell>
        <mxCell id="yMNoHmbHOcBadjuwgdB2-42" value="" style="line;strokeWidth=3;fillColor=none;align=left;verticalAlign=middle;spacingTop=-1;spacingLeft=3;spacingRight=3;rotatable=0;labelPosition=right;points=[];portConstraint=eastwest;fontFamily=Verdana;" vertex="1" parent="yMNoHmbHOcBadjuwgdB2-38">
          <mxGeometry x="450" y="280" width="120" height="8" as="geometry" />
        </mxCell>
        <mxCell id="yMNoHmbHOcBadjuwgdB2-43" value="" style="endArrow=classic;html=1;rounded=0;exitX=0.395;exitY=0.428;exitDx=0;exitDy=0;exitPerimeter=0;fontFamily=Verdana;entryX=0.5;entryY=0;entryDx=0;entryDy=0;" edge="1" parent="yMNoHmbHOcBadjuwgdB2-38" source="yMNoHmbHOcBadjuwgdB2-42" target="yMNoHmbHOcBadjuwgdB2-44">
          <mxGeometry width="50" height="50" relative="1" as="geometry">
            <mxPoint x="100" y="320" as="sourcePoint" />
            <mxPoint x="80" y="270" as="targetPoint" />
            <Array as="points">
              <mxPoint x="375" y="360" />
            </Array>
          </mxGeometry>
        </mxCell>
        <mxCell id="yMNoHmbHOcBadjuwgdB2-82" style="edgeStyle=none;rounded=0;orthogonalLoop=1;jettySize=auto;html=1;fontFamily=Verdana;entryX=0.5;entryY=0;entryDx=0;entryDy=0;" edge="1" parent="yMNoHmbHOcBadjuwgdB2-38" source="yMNoHmbHOcBadjuwgdB2-44" target="yMNoHmbHOcBadjuwgdB2-83">
          <mxGeometry relative="1" as="geometry">
            <mxPoint x="375" y="520" as="targetPoint" />
          </mxGeometry>
        </mxCell>
        <mxCell id="yMNoHmbHOcBadjuwgdB2-44" value="Выбор функции Добавление записей" style="rounded=1;whiteSpace=wrap;html=1;arcSize=18;fontFamily=Verdana;" vertex="1" parent="yMNoHmbHOcBadjuwgdB2-38">
          <mxGeometry x="330" y="390" width="90" height="60" as="geometry" />
        </mxCell>
        <mxCell id="yMNoHmbHOcBadjuwgdB2-81" value="" style="edgeStyle=none;rounded=0;orthogonalLoop=1;jettySize=auto;html=1;fontFamily=Verdana;" edge="1" parent="yMNoHmbHOcBadjuwgdB2-38" source="yMNoHmbHOcBadjuwgdB2-45" target="yMNoHmbHOcBadjuwgdB2-80">
          <mxGeometry relative="1" as="geometry" />
        </mxCell>
        <mxCell id="yMNoHmbHOcBadjuwgdB2-45" value="Выбор функции&amp;nbsp;&lt;br&gt;Изменение записей" style="rounded=1;whiteSpace=wrap;html=1;arcSize=18;fontFamily=Verdana;" vertex="1" parent="yMNoHmbHOcBadjuwgdB2-38">
          <mxGeometry x="430" y="390" width="90" height="60" as="geometry" />
        </mxCell>
        <mxCell id="yMNoHmbHOcBadjuwgdB2-46" value="" style="endArrow=classic;html=1;rounded=0;exitX=0.499;exitY=0.581;exitDx=0;exitDy=0;exitPerimeter=0;fontFamily=Verdana;entryX=0.5;entryY=0;entryDx=0;entryDy=0;" edge="1" parent="yMNoHmbHOcBadjuwgdB2-38" source="yMNoHmbHOcBadjuwgdB2-42" target="yMNoHmbHOcBadjuwgdB2-45">
          <mxGeometry width="50" height="50" relative="1" as="geometry">
            <mxPoint x="134.74" y="223.86400000000003" as="sourcePoint" />
            <mxPoint x="160" y="270" as="targetPoint" />
            <Array as="points">
              <mxPoint x="475" y="360" />
            </Array>
          </mxGeometry>
        </mxCell>
        <mxCell id="yMNoHmbHOcBadjuwgdB2-61" style="edgeStyle=none;rounded=0;orthogonalLoop=1;jettySize=auto;html=1;fontFamily=Verdana;entryX=0.5;entryY=0;entryDx=0;entryDy=0;" edge="1" parent="yMNoHmbHOcBadjuwgdB2-38" source="yMNoHmbHOcBadjuwgdB2-47" target="yMNoHmbHOcBadjuwgdB2-60">
          <mxGeometry relative="1" as="geometry">
            <Array as="points">
              <mxPoint x="575" y="560" />
              <mxPoint x="235" y="560" />
            </Array>
          </mxGeometry>
        </mxCell>
        <mxCell id="yMNoHmbHOcBadjuwgdB2-47" value="Выбор функции&amp;nbsp;&lt;br&gt;Удаление записей" style="rounded=1;whiteSpace=wrap;html=1;arcSize=18;fontFamily=Verdana;" vertex="1" parent="yMNoHmbHOcBadjuwgdB2-38">
          <mxGeometry x="530" y="390" width="90" height="60" as="geometry" />
        </mxCell>
        <mxCell id="yMNoHmbHOcBadjuwgdB2-48" value="" style="endArrow=classic;html=1;rounded=0;exitX=0.596;exitY=0.428;exitDx=0;exitDy=0;exitPerimeter=0;fontFamily=Verdana;entryX=0.5;entryY=0;entryDx=0;entryDy=0;" edge="1" parent="yMNoHmbHOcBadjuwgdB2-38" source="yMNoHmbHOcBadjuwgdB2-42" target="yMNoHmbHOcBadjuwgdB2-47">
          <mxGeometry width="50" height="50" relative="1" as="geometry">
            <mxPoint x="134.74" y="223.86400000000003" as="sourcePoint" />
            <mxPoint x="160" y="270" as="targetPoint" />
            <Array as="points">
              <mxPoint x="575" y="360" />
            </Array>
          </mxGeometry>
        </mxCell>
        <mxCell id="yMNoHmbHOcBadjuwgdB2-49" style="edgeStyle=none;rounded=0;orthogonalLoop=1;jettySize=auto;html=1;exitX=0.757;exitY=0.554;exitDx=0;exitDy=0;entryX=0.5;entryY=0;entryDx=0;entryDy=0;fontFamily=Verdana;exitPerimeter=0;" edge="1" parent="yMNoHmbHOcBadjuwgdB2-38" source="yMNoHmbHOcBadjuwgdB2-42" target="yMNoHmbHOcBadjuwgdB2-50">
          <mxGeometry relative="1" as="geometry">
            <Array as="points">
              <mxPoint x="675" y="360" />
            </Array>
          </mxGeometry>
        </mxCell>
        <mxCell id="yMNoHmbHOcBadjuwgdB2-84" style="edgeStyle=none;rounded=0;orthogonalLoop=1;jettySize=auto;html=1;fontFamily=Verdana;" edge="1" parent="yMNoHmbHOcBadjuwgdB2-38" source="yMNoHmbHOcBadjuwgdB2-50">
          <mxGeometry relative="1" as="geometry">
            <mxPoint x="675" y="479.9999999999999" as="targetPoint" />
          </mxGeometry>
        </mxCell>
        <mxCell id="yMNoHmbHOcBadjuwgdB2-50" value="Выбор функции&amp;nbsp;&lt;br&gt;Запрос" style="rounded=1;whiteSpace=wrap;html=1;arcSize=18;fontFamily=Verdana;" vertex="1" parent="yMNoHmbHOcBadjuwgdB2-38">
          <mxGeometry x="630" y="390" width="90" height="60" as="geometry" />
        </mxCell>
        <mxCell id="yMNoHmbHOcBadjuwgdB2-57" style="edgeStyle=none;rounded=0;orthogonalLoop=1;jettySize=auto;html=1;entryX=0.499;entryY=0.45;entryDx=0;entryDy=0;entryPerimeter=0;fontFamily=Verdana;" edge="1" parent="yMNoHmbHOcBadjuwgdB2-38" target="yMNoHmbHOcBadjuwgdB2-42">
          <mxGeometry relative="1" as="geometry">
            <mxPoint x="240" y="170" as="sourcePoint" />
            <Array as="points">
              <mxPoint x="260" y="220" />
              <mxPoint x="490" y="220" />
            </Array>
          </mxGeometry>
        </mxCell>
        <mxCell id="yMNoHmbHOcBadjuwgdB2-58" style="edgeStyle=none;rounded=0;orthogonalLoop=1;jettySize=auto;html=1;entryX=0.5;entryY=0;entryDx=0;entryDy=0;fontFamily=Verdana;" edge="1" parent="yMNoHmbHOcBadjuwgdB2-38" target="yMNoHmbHOcBadjuwgdB2-40">
          <mxGeometry relative="1" as="geometry">
            <mxPoint x="210" y="170" as="sourcePoint" />
            <Array as="points">
              <mxPoint x="190" y="220" />
              <mxPoint x="225" y="220" />
            </Array>
          </mxGeometry>
        </mxCell>
        <mxCell id="yMNoHmbHOcBadjuwgdB2-54" value="" style="line;strokeWidth=3;fillColor=none;align=left;verticalAlign=middle;spacingTop=-1;spacingLeft=3;spacingRight=3;rotatable=0;labelPosition=right;points=[];portConstraint=eastwest;fontFamily=Verdana;" vertex="1" parent="yMNoHmbHOcBadjuwgdB2-38">
          <mxGeometry x="187.5" y="160" width="75" height="8" as="geometry" />
        </mxCell>
        <mxCell id="yMNoHmbHOcBadjuwgdB2-74" style="edgeStyle=none;rounded=0;orthogonalLoop=1;jettySize=auto;html=1;entryX=0;entryY=0.5;entryDx=0;entryDy=0;fontFamily=Verdana;" edge="1" parent="yMNoHmbHOcBadjuwgdB2-38" source="yMNoHmbHOcBadjuwgdB2-60" target="yMNoHmbHOcBadjuwgdB2-73">
          <mxGeometry relative="1" as="geometry" />
        </mxCell>
        <mxCell id="yMNoHmbHOcBadjuwgdB2-60" value="Запрос пароля" style="rounded=1;whiteSpace=wrap;html=1;arcSize=18;fontFamily=Verdana;" vertex="1" parent="yMNoHmbHOcBadjuwgdB2-38">
          <mxGeometry x="190" y="580" width="90" height="30" as="geometry" />
        </mxCell>
        <mxCell id="yMNoHmbHOcBadjuwgdB2-72" style="edgeStyle=none;rounded=0;orthogonalLoop=1;jettySize=auto;html=1;entryX=0.5;entryY=0;entryDx=0;entryDy=0;fontFamily=Verdana;" edge="1" parent="yMNoHmbHOcBadjuwgdB2-38" source="yMNoHmbHOcBadjuwgdB2-63" target="yMNoHmbHOcBadjuwgdB2-66">
          <mxGeometry relative="1" as="geometry" />
        </mxCell>
        <mxCell id="yMNoHmbHOcBadjuwgdB2-76" value="+" style="edgeLabel;html=1;align=center;verticalAlign=middle;resizable=0;points=[];fontFamily=Verdana;" vertex="1" connectable="0" parent="yMNoHmbHOcBadjuwgdB2-72">
          <mxGeometry x="-0.2494" y="1" relative="1" as="geometry">
            <mxPoint x="14" y="-8" as="offset" />
          </mxGeometry>
        </mxCell>
        <mxCell id="yMNoHmbHOcBadjuwgdB2-77" style="edgeStyle=none;rounded=0;orthogonalLoop=1;jettySize=auto;html=1;entryX=0;entryY=0.5;entryDx=0;entryDy=0;fontFamily=Verdana;" edge="1" parent="yMNoHmbHOcBadjuwgdB2-38" source="yMNoHmbHOcBadjuwgdB2-63" target="yMNoHmbHOcBadjuwgdB2-60">
          <mxGeometry relative="1" as="geometry">
            <Array as="points">
              <mxPoint x="160" y="680" />
              <mxPoint x="160" y="595" />
            </Array>
          </mxGeometry>
        </mxCell>
        <mxCell id="yMNoHmbHOcBadjuwgdB2-78" value="-" style="edgeLabel;html=1;align=center;verticalAlign=middle;resizable=0;points=[];fontFamily=Verdana;" vertex="1" connectable="0" parent="yMNoHmbHOcBadjuwgdB2-77">
          <mxGeometry x="-0.888" y="-1" relative="1" as="geometry">
            <mxPoint x="1" y="-9" as="offset" />
          </mxGeometry>
        </mxCell>
        <mxCell id="yMNoHmbHOcBadjuwgdB2-63" value="Проверка" style="rhombus;whiteSpace=wrap;html=1;fontFamily=Verdana;strokeWidth=1;" vertex="1" parent="yMNoHmbHOcBadjuwgdB2-38">
          <mxGeometry x="195" y="640" width="80" height="80" as="geometry" />
        </mxCell>
        <mxCell id="yMNoHmbHOcBadjuwgdB2-87" style="edgeStyle=none;rounded=0;orthogonalLoop=1;jettySize=auto;html=1;entryX=0.5;entryY=0;entryDx=0;entryDy=0;fontFamily=Verdana;" edge="1" parent="yMNoHmbHOcBadjuwgdB2-38" source="yMNoHmbHOcBadjuwgdB2-66" target="yMNoHmbHOcBadjuwgdB2-86">
          <mxGeometry relative="1" as="geometry" />
        </mxCell>
        <mxCell id="yMNoHmbHOcBadjuwgdB2-66" value="Транзакция" style="rounded=1;whiteSpace=wrap;html=1;arcSize=18;fontFamily=Verdana;" vertex="1" parent="yMNoHmbHOcBadjuwgdB2-38">
          <mxGeometry x="170" y="740" width="130" height="30" as="geometry" />
        </mxCell>
        <mxCell id="yMNoHmbHOcBadjuwgdB2-75" style="edgeStyle=none;rounded=0;orthogonalLoop=1;jettySize=auto;html=1;entryX=0.5;entryY=0;entryDx=0;entryDy=0;fontFamily=Verdana;exitX=0.5;exitY=1;exitDx=0;exitDy=0;" edge="1" parent="yMNoHmbHOcBadjuwgdB2-38" source="yMNoHmbHOcBadjuwgdB2-73" target="yMNoHmbHOcBadjuwgdB2-63">
          <mxGeometry relative="1" as="geometry">
            <Array as="points">
              <mxPoint x="405" y="620" />
              <mxPoint x="235" y="620" />
            </Array>
          </mxGeometry>
        </mxCell>
        <mxCell id="yMNoHmbHOcBadjuwgdB2-73" value="Ввод пароля" style="rounded=1;whiteSpace=wrap;html=1;arcSize=18;fontFamily=Verdana;" vertex="1" parent="yMNoHmbHOcBadjuwgdB2-38">
          <mxGeometry x="360" y="580" width="90" height="30" as="geometry" />
        </mxCell>
        <mxCell id="yMNoHmbHOcBadjuwgdB2-89" style="edgeStyle=none;rounded=0;orthogonalLoop=1;jettySize=auto;html=1;fontFamily=Verdana;endArrow=none;endFill=0;" edge="1" parent="yMNoHmbHOcBadjuwgdB2-38" source="yMNoHmbHOcBadjuwgdB2-80">
          <mxGeometry relative="1" as="geometry">
            <mxPoint x="520" y="540" as="targetPoint" />
            <Array as="points">
              <mxPoint x="475" y="540" />
            </Array>
          </mxGeometry>
        </mxCell>
        <mxCell id="yMNoHmbHOcBadjuwgdB2-80" value="Ввод изменений" style="whiteSpace=wrap;html=1;fontFamily=Verdana;rounded=1;arcSize=18;" vertex="1" parent="yMNoHmbHOcBadjuwgdB2-38">
          <mxGeometry x="430" y="480" width="90" height="35" as="geometry" />
        </mxCell>
        <mxCell id="yMNoHmbHOcBadjuwgdB2-88" style="edgeStyle=none;rounded=0;orthogonalLoop=1;jettySize=auto;html=1;fontFamily=Verdana;entryX=1;entryY=0.5;entryDx=0;entryDy=0;" edge="1" parent="yMNoHmbHOcBadjuwgdB2-38" source="yMNoHmbHOcBadjuwgdB2-83" target="yMNoHmbHOcBadjuwgdB2-86">
          <mxGeometry relative="1" as="geometry">
            <mxPoint x="375" y="820" as="targetPoint" />
            <Array as="points">
              <mxPoint x="375" y="540" />
              <mxPoint x="520" y="540" />
              <mxPoint x="520" y="815" />
            </Array>
          </mxGeometry>
        </mxCell>
        <mxCell id="yMNoHmbHOcBadjuwgdB2-83" value="Ввод значений записи" style="whiteSpace=wrap;html=1;fontFamily=Verdana;rounded=1;arcSize=18;" vertex="1" parent="yMNoHmbHOcBadjuwgdB2-38">
          <mxGeometry x="327.5" y="480" width="95" height="35" as="geometry" />
        </mxCell>
        <mxCell id="yMNoHmbHOcBadjuwgdB2-90" style="edgeStyle=none;rounded=0;orthogonalLoop=1;jettySize=auto;html=1;fontFamily=Verdana;endArrow=none;endFill=0;" edge="1" parent="yMNoHmbHOcBadjuwgdB2-38" source="yMNoHmbHOcBadjuwgdB2-85">
          <mxGeometry relative="1" as="geometry">
            <mxPoint x="520" y="630" as="targetPoint" />
            <Array as="points">
              <mxPoint x="675" y="540" />
              <mxPoint x="520" y="540" />
            </Array>
          </mxGeometry>
        </mxCell>
        <mxCell id="yMNoHmbHOcBadjuwgdB2-85" value="Ввод запроса" style="whiteSpace=wrap;html=1;fontFamily=Verdana;rounded=1;arcSize=18;" vertex="1" parent="yMNoHmbHOcBadjuwgdB2-38">
          <mxGeometry x="630" y="480" width="90" height="35" as="geometry" />
        </mxCell>
        <mxCell id="yMNoHmbHOcBadjuwgdB2-91" style="edgeStyle=none;rounded=0;orthogonalLoop=1;jettySize=auto;html=1;fontFamily=Verdana;endArrow=classic;endFill=1;startArrow=none;startFill=0;entryX=1;entryY=0.5;entryDx=0;entryDy=0;" edge="1" parent="yMNoHmbHOcBadjuwgdB2-38" source="yMNoHmbHOcBadjuwgdB2-86" target="60571a20871a0731-5">
          <mxGeometry relative="1" as="geometry">
            <mxPoint x="235" y="900" as="targetPoint" />
            <Array as="points">
              <mxPoint x="235" y="880" />
            </Array>
          </mxGeometry>
        </mxCell>
        <mxCell id="yMNoHmbHOcBadjuwgdB2-86" value="Вывод о успешной операции" style="rounded=1;whiteSpace=wrap;html=1;arcSize=18;fontFamily=Verdana;" vertex="1" parent="yMNoHmbHOcBadjuwgdB2-38">
          <mxGeometry x="170" y="800" width="130" height="30" as="geometry" />
        </mxCell>
      </root>
    </mxGraphModel>
  </diagram>
</mxfile>
